#!OML:ASF E:\Steps\Project 1\Capture day 1\Session 2\Subject.ASF
:FULLY-SPECIFIED
:DEGREES
490
root 12.4046 17.1041 8.12986 -155.874 2.0568 176.824
lowerback -31.3064 -3.13325 -7.39324
upperback -0.755906 -0.711645 -0.0717264
thorax 15.6611 -0.553523 3.71224
lowerneck -3.88108 0.021013 0.668428
upperneck 6.16284 0.0113725 0.493842
head 2.61988 0.061927 0.044175
rclavicle 2.21148e-015 3.37934e-014
rhumerus -38.4809 -21.4707 -74.2705
rradius 31.6519
rwrist -1.18524
rhand -7.66911 -52.416
rfingers 7.12502
rthumb 18.2272 278.418
lclavicle 2.21148e-015 3.37934e-014
lhumerus -32.7218 6.65839 79.2241
lradius 17.6797
lwrist -7.52844
lhand -20.8403 -10.4568
lfingers 7.12502
lthumb 5.52849 19.4511
rfemur -21.381 6.90816 18.6818
rtibia 7.85859
rfoot -19.6948 -2.3605
rtoes -19.7727
lfemur -21.9103 -9.59296 -23.9262
ltibia 10.1392
lfoot -9.93076 -2.38846
ltoes -32.1735
491
root 12.4068 17.1051 8.12794 -155.929 2.1185 176.835
lowerback -31.2822 -3.11034 -7.40374
upperback -0.686375 -0.682349 -0.111267
thorax 15.7284 -0.549094 3.68623
lowerneck -4.01226 -0.0488339 0.709209
upperneck 6.1906 -0.0943388 0.606676
head 2.65362 0.0140416 0.069562
rclavicle -9.44227e-016 -1.68967e-014
rhumerus -38.4008 -21.629 -74.3698
rradius 31.6468
rwrist -1.14799
rhand -7.38124 -52.3339
rfingers 7.12502
rthumb 18.5041 278.526
lclavicle -9.44227e-016 -1.68967e-014
lhumerus -32.69 6.81355 78.9856
lradius 17.562
lwrist -7.73352
lhand -20.4961 -10.6502
lfingers 7.12502
lthumb 5.86081 19.2487
rfemur -21.3003 6.95515 18.7037
rtibia 7.84123
rfoot -19.6694 -2.37754
rtoes -19.7672
lfemur -21.8106 -9.57795 -23.92
ltibia 10.0794
lfoot -9.87199 -2.35293
ltoes -32.0505
492
root 12.4086 17.106 8.12764 -155.94 2.20103 176.822
lowerback -31.2793 -3.10783 -7.43941
upperback -0.651442 -0.667827 -0.126862
thorax 15.7666 -0.549298 3.69402
lowerneck -4.03079 -0.0966874 0.606636
upperneck 6.11767 -0.167471 0.836273
head 2.63301 -0.0181052 0.157908
rclavicle -7.82715e-015 -1.09332e-014
rhumerus -38.3544 -21.7359 -74.3914
rradius 31.6354
rwrist -1.18084
rhand -7.32687 -52.3612
rfingers 7.12502
rthumb 18.5564 278.504
lclavicle -7.82715e-015 -1.09332e-014
lhumerus -32.6685 7.05004 78.7719
lradius 17.3886
lwrist -7.92841
lhand -20.2533 -10.7556
lfingers 7.12502
lthumb 6.09529 19.1367
rfemur -21.3374 7.06976 18.6638
rtibia 7.94104
rfoot -19.7131 -2.42131
rtoes -19.3263
lfemur -21.7786 -9.58813 -23.9296
ltibia 10.0526
lfoot -9.77723 -2.2712
ltoes -31.7636
493
root 12.4093 17.1057 8.12756 -155.935 2.26216 176.788
lowerback -31.2862 -3.12907 -7.49868
upperback -0.622031 -0.675074 -0.132825
thorax 15.8054 -0.560249 3.71589
lowerneck -4.06988 -0.075305 0.531985
upperneck 5.9871 -0.141423 0.899442
head 2.59666 -0.00722921 0.191571
rclavicle -9.83984e-015 -7.7526e-015
rhumerus -38.3625 -21.8747 -74.385
rradius 31.7127
rwrist -1.08801
rhand -7.35388 -52.415
rfingers 7.12502
rthumb 18.5304 278.448
lclavicle -9.83984e-015 -7.7526e-015
lhumerus -32.6168 7.41013 78.5326
lradius 17.099
lwrist -8.27423
lhand -20.3619 -10.8708
lfingers 7.12502
lthumb 5.99042 19.0245
rfemur -21.3598 7.10222 18.605
rtibia 7.96417
rfoot -19.7123 -2.43358
rtoes -19.2132
lfemur -21.7687 -9.58606 -23.9766
ltibia 10.0377
lfoot -9.73628 -2.213
ltoes -31.7259
494
root 12.4099 17.105 8.12611 -155.945 2.30924 176.781
lowerback -31.3027 -3.14152 -7.52669
upperback -0.59338 -0.682835 -0.130866
thorax 15.8478 -0.569657 3.72938
lowerneck -4.1379 -0.0383356 0.484261
upperneck 5.90515 -0.0912336 0.881122
head 2.58177 0.0142104 0.195519
rclavicle 1.08089e-014 -2.14687e-014
rhumerus -38.3878 -21.8318 -74.4752
rradius 31.8318
rwrist -1.08248
rhand -7.22683 -52.3917
rfingers 7.12502
rthumb 18.6526 278.483
lclavicle 1.08089e-014 -2.14687e-014
lhumerus -32.6329 7.59239 78.3676
lradius 16.8493
lwrist -8.47662
lhand -20.5388 -11.118
lfingers 7.12502
lthumb 5.81964 18.7821
rfemur -21.3304 7.07576 18.602
rtibia 7.92436
rfoot -19.6662 -2.37682
rtoes -19.5246
lfemur -21.7278 -9.5315 -24.0174
ltibia 9.9688
lfoot -9.71966 -2.20462
ltoes -32.0629
495
root 12.4103 17.1052 8.12648 -155.916 2.36299 176.801
lowerback -31.3142 -3.14327 -7.53935
upperback -0.590934 -0.682514 -0.116516
thorax 15.8562 -0.571673 3.75196
lowerneck -4.24577 -0.0346269 0.480395
upperneck 5.88821 -0.0894086 0.888718
head 2.59617 0.0145476 0.198696
rclavicle -5.54112e-015 -7.7526e-015
rhumerus -38.3803 -21.6607 -74.6001
rradius 31.8692
rwrist -1.19277
rhand -7.25915 -52.3229
rfingers 7.12502
rthumb 18.6216 278.548
lclavicle -5.54112e-015 -7.7526e-015
lhumerus -32.711 7.75131 78.2351
lradius 16.688
lwrist -8.641
lhand -20.6403 -11.2971
lfingers 7.12502
lthumb 5.72168 18.6057
rfemur -21.3881 7.10913 18.6118
rtibia 7.93416
rfoot -19.6083 -2.31792
rtoes -19.6206
lfemur -21.748 -9.49785 -24.005
ltibia 9.91095
lfoot -9.65276 -2.09152
ltoes -32.2773
496
root 12.4102 17.1059 8.12793 -155.865 2.42867 176.813
lowerback -31.2932 -3.12692 -7.55121
upperback -0.626316 -0.653481 -0.126739
thorax 15.8012 -0.554555 3.75983
lowerneck -4.33648 -0.0695182 0.547432
upperneck 5.91303 -0.142748 0.899423
head 2.62146 -0.00989313 0.188782
rclavicle 3.08116e-015 3.18055e-014
rhumerus -38.4802 -21.649 -74.6225
rradius 31.8856
rwrist -1.20791
rhand -7.22489 -51.8712
rfingers 7.12502
rthumb 18.6545 279.003
lclavicle 3.08116e-015 3.18055e-014
lhumerus -32.849 7.94457 78.0608
lradius 16.6288
lwrist -8.93589
lhand -20.7085 -11.2054
lfingers 7.12502
lthumb 5.65576 18.6992
rfemur -21.4889 7.14844 18.6022
rtibia 7.99136
rfoot -19.6147 -2.24345
rtoes -19.2953
lfemur -21.8001 -9.50318 -23.983
ltibia 9.91879
lfoot -9.63585 -1.97132
ltoes -32.233
497
root 12.411 17.107 8.12797 -155.858 2.43935 176.786
lowerback -31.2689 -3.13791 -7.58666
upperback -0.644022 -0.650781 -0.149415
thorax 15.7685 -0.552024 3.75544
lowerneck -4.38275 -0.131729 0.607328
upperneck 5.96227 -0.229848 0.892174
head 2.64669 -0.0513538 0.173115
rclavicle -1.21756e-015 5.76476e-015
rhumerus -38.5704 -21.6372 -74.6602
rradius 31.8755
rwrist -1.15336
rhand -6.79587 -51.2421
rfingers 7.12502
rthumb 19.0671 279.673
lclavicle -1.21756e-015 5.76476e-015
lhumerus -32.9894 8.0266 77.9136
lradius 16.6191
lwrist -9.1364
lhand -20.7455 -11.002
lfingers 7.12502
lthumb 5.62003 18.9035
rfemur -21.4832 7.20768 18.5544
rtibia 7.96934
rfoot -19.6687 -2.23805
rtoes -18.7319
lfemur -21.8021 -9.50576 -24.0047
ltibia 9.93145
lfoot -9.73204 -2.0767
ltoes -31.9417
498
root 12.4115 17.1084 8.12809 -155.849 2.42502 176.759
lowerback -31.2963 -3.1617 -7.62091
upperback -0.604583 -0.66648 -0.165024
thorax 15.8291 -0.565516 3.74942
lowerneck -4.53157 -0.200526 0.758873
upperneck 6.11397 -0.324052 0.729973
head 2.72502 -0.0984615 0.0917125
rclavicle 6.26172e-015 4.37326e-015
rhumerus -38.5531 -21.4802 -74.8112
rradius 31.919
rwrist -1.22101
rhand -6.55562 -51.2052
rfingers 7.12502
rthumb 19.2982 279.732
lclavicle 6.26172e-015 4.37326e-015
lhumerus -32.9379 8.24318 77.7369
lradius 16.4689
lwrist -9.50316
lhand -20.7904 -11.0895
lfingers 7.12502
lthumb 5.57672 18.8171
rfemur -21.4424 7.21796 18.5094
rtibia 7.86017
rfoot -19.5999 -2.23058
rtoes -18.1441
lfemur -21.8178 -9.51677 -24.0271
ltibia 9.91013
lfoot -9.78578 -2.14737
ltoes -32.0579
499
root 12.4107 17.1084 8.12828 -155.816 2.46349 176.769
lowerback -31.3443 -3.1543 -7.62459
upperback -0.571236 -0.652888 -0.166327
thorax 15.8887 -0.564312 3.75494
lowerneck -4.70183 -0.263776 0.917587
upperneck 6.29564 -0.412006 0.577349
head 2.81763 -0.141543 0.0118192
rclavicle 3.57812e-015 2.84262e-014
rhumerus -38.5564 -21.2552 -74.942
rradius 31.9778
rwrist -1.49777
rhand -6.62225 -51.4322
rfingers 7.12502
rthumb 19.2341 279.499
lclavicle 3.57812e-015 2.84262e-014
lhumerus -32.8541 8.40877 77.624
lradius 16.3351
lwrist -9.78313
lhand -20.8039 -11.2356
lfingers 7.12502
lthumb 5.56371 18.6714
rfemur -21.469 7.18077 18.5057
rtibia 7.82254
rfoot -19.5235 -2.1541
rtoes -18.0271
lfemur -21.8599 -9.50935 -24.0252
ltibia 9.89852
lfoot -9.79162 -2.08417
ltoes -32.3941
500
root 12.4109 17.1083 8.12887 -155.802 2.49423 176.8
lowerback -31.3243 -3.15054 -7.6405
upperback -0.580646 -0.64918 -0.141653
thorax 15.8687 -0.564138 3.7925
lowerneck -4.72606 -0.283997 0.941262
upperneck 6.28945 -0.441592 0.577877
head 2.82 -0.155823 0.00670174
rclavicle -1.24489e-014 4.77083e-015
rhumerus -38.5792 -21.1885 -74.9492
rradius 31.8926
rwrist -1.60762
rhand -6.63127 -51.5376
rfingers 7.12502
rthumb 19.2254 279.393
lclavicle -1.24489e-014 4.77083e-015
lhumerus -32.9512 8.11617 77.7242
lradius 16.4661
lwrist -9.41938
lhand -20.7165 -11.0001
lfingers 7.12502
lthumb 5.64809 18.9047
rfemur -21.4875 7.16756 18.5419
rtibia 7.82257
rfoot -19.5203 -2.11518
rtoes -18.596
lfemur -21.8667 -9.53188 -23.9789
ltibia 9.90394
lfoot -9.85759 -2.1016
ltoes -31.9354
501
root 12.412 17.1093 8.13009 -155.833 2.50537 176.82
lowerback -31.2724 -3.15034 -7.66382
upperback -0.568943 -0.651083 -0.131684
thorax 15.8598 -0.56904 3.81557
lowerneck -4.70084 -0.263854 0.920169
upperneck 6.20153 -0.417748 0.640571
head 2.78577 -0.143508 0.0314478
rclavicle 1.89591e-014 1.05356e-014
rhumerus -38.5717 -21.3733 -74.9051
rradius 31.7711
rwrist -1.38561
rhand -6.39788 -51.6079
rfingers 7.12502
rthumb 19.4498 279.345
lclavicle 1.89591e-014 1.05356e-014
lhumerus -33.0338 7.81412 77.8173
lradius 16.6004
lwrist -9.04925
lhand -20.5982 -10.7663
lfingers 7.12502
lthumb 5.76228 19.1353
rfemur -21.4538 7.12895 18.5925
rtibia 7.83204
rfoot -19.5512 -2.1106
rtoes -19.0837
lfemur -21.8147 -9.56658 -23.9439
ltibia 9.88569
lfoot -9.91183 -2.09778
ltoes -31.8624
